<svg width="200" height="200" viewBox="0 0 200 200" xmlns="http://www.w3.org/2000/svg">
  <defs>
    <linearGradient id="houseGradient" x1="0%" y1="0%" x2="100%" y2="100%">
      <stop offset="0%" style="stop-color:#f8bbd9;stop-opacity:1" />
      <stop offset="100%" style="stop-color:#fce4ec;stop-opacity:1" />
    </linearGradient>
    <linearGradient id="faceGradient" x1="0%" y1="0%" x2="100%" y2="100%">
      <stop offset="0%" style="stop-color:#2e2e2e;stop-opacity:1" />
      <stop offset="100%" style="stop-color:#3a3a3a;stop-opacity:1" />
    </linearGradient>
  </defs>
  
  <!-- Background Circle -->
  <circle cx="100" cy="100" r="95" fill="url(#houseGradient)" stroke="#e91e63" stroke-width="3"/>
  
  <!-- House Shape -->
  <path d="M 40 120 L 100 60 L 160 120 L 160 160 L 40 160 Z" 
        fill="none" 
        stroke="url(#faceGradient)" 
        stroke-width="6" 
        stroke-linejoin="round"/>
  
  <!-- Face Profile Inside House -->
  <path d="M 80 90 Q 85 85 90 90 Q 95 95 100 95 Q 105 100 110 105 Q 115 110 120 115 Q 115 120 110 125 Q 105 130 100 135 Q 95 130 90 125 Q 85 120 80 115 Q 75 110 75 105 Q 75 100 80 95 Z" 
        fill="url(#faceGradient)"/>
  
  <!-- Hair Flowing -->
  <path d="M 85 85 Q 80 80 75 85 Q 70 90 75 95" 
        fill="none" 
        stroke="url(#faceGradient)" 
        stroke-width="3" 
        stroke-linecap="round"/>
  
  <!-- Sparkles -->
  <g fill="#e91e63">
    <!-- Large sparkle -->
    <path d="M 125 100 L 130 105 L 125 110 L 120 105 Z"/>
    <path d="M 125 95 L 125 115 M 115 105 L 135 105" 
          stroke="#e91e63" 
          stroke-width="2" 
          stroke-linecap="round"/>
    
    <!-- Small sparkle -->
    <circle cx="140" cy="85" r="2"/>
    <path d="M 140 80 L 140 90 M 135 85 L 145 85" 
          stroke="#e91e63" 
          stroke-width="1.5" 
          stroke-linecap="round"/>
  </g>
  
  <!-- Additional decorative elements -->
  <circle cx="60" cy="75" r="3" fill="#f8bbd9" opacity="0.7"/>
  <circle cx="145" cy="130" r="2" fill="#e91e63" opacity="0.8"/>
  <circle cx="55" cy="145" r="2" fill="#f8bbd9" opacity="0.6"/>
</svg>
